<?xml version="1.0" encoding="UTF-8" standalone="no"?>
<!DOCTYPE svg PUBLIC "-//W3C//DTD SVG 1.1//EN" "http://www.w3.org/Graphics/SVG/1.1/DTD/svg11.dtd">
<!--Generated by Intaglio, www.PurgatoryDesign.com-->
<svg version="1.1" viewBox="0,0,576,734" width="576" height="734" xmlns="http://www.w3.org/2000/svg" xmlns:xlink="http://www.w3.org/1999/xlink" xmlns:intaglio="http://purgatorydesign.com/namespaces/intaglio" intaglio:grid="18,18,2,2,0.5,#9999bf,1,0,0,0" intaglio:guides="0.8,#f0f,1,1"><g><path fill="#fffffe" stroke="#000100" d="M252,549 C252,553.971,247.971,558,243,558 C238.029,558,234,553.971,234,549 C234,544.029,238.029,540,243,540 C247.971,540,252,544.029,252,549 Z"/><text fill="#000100" font-family="Helvetica" font-size="12" transform="matrix(1,0,0,1,238.655,553.31)" xml:space="preserve"><tspan>C</tspan></text></g><g><path fill="#fffffe" stroke="#000100" d="M252,612 C252,616.971,247.971,621,243,621 C238.029,621,234,616.971,234,612 C234,607.029,238.029,603,243,603 C247.971,603,252,607.029,252,612 Z"/><text fill="#000100" font-family="Helvetica" font-size="12" transform="matrix(1,0,0,1,238.983,616.304)" xml:space="preserve"><tspan>A</tspan></text></g><path fill="none" stroke="#000100" d="M243,558 L243,603"/><path fill="none" stroke="#000100" stroke-width="3" d="M252,549 L297,531"/><path fill="none" stroke="#000100" d="M315,531 L360,531"/><path fill="none" stroke="#000100" stroke-width="3" d="M306,522 L306,477"/><path fill="none" stroke="#000100" d="M315,468 L360,450"/><path fill="none" stroke="#000100" d="M306,459 L315,414"/><path fill="none" stroke="#000100" stroke-width="3" d="M297,467.403 L252,441"/><path fill="none" stroke="#000100" stroke-width="3" d="M234,549.53 L189,531"/><path fill="none" stroke="#000100" stroke-width="3" d="M180,522 L198,486"/><path fill="none" stroke="#000100" d="M180,522 L153,477"/><path fill="none" stroke="#000100" d="M171,531.829 L135,506.724"/><path fill="none" stroke="#000100" stroke-width="3" d="M171,531.829 L126,549"/><path fill="none" stroke="#000100" stroke-width="3" d="M108,549 L72,576"/><path fill="none" stroke="#000100" d="M63,540 L108,549"/><path fill="none" stroke="#000100" d="M108,549 L72,504"/><g><path fill="#fffffe" stroke="#000100" stroke-width="4" d="M252,441 C252,445.971,247.971,450,243,450 C238.029,450,234,445.971,234,441 C234,436.029,238.029,432,243,432 C247.971,432,252,436.029,252,441 Z"/><text fill="#000100" font-family="Helvetica" font-size="12" transform="matrix(1,0,0,1,238.983,445.304)" xml:space="preserve"><tspan>A</tspan></text></g><g><path fill="#fffffe" stroke="#000100" stroke-width="4" d="M207,477 C207,481.971,202.971,486,198,486 C193.029,486,189,481.971,189,477 C189,472.029,193.029,468,198,468 C202.971,468,207,472.029,207,477 Z"/><text fill="#000100" font-family="Helvetica" font-size="12" transform="matrix(1,0,0,1,193.983,481.304)" xml:space="preserve"><tspan>A</tspan></text></g><g><path fill="#fffffe" stroke="#000100" stroke-width="4" d="M72,576 C72,580.971,67.9706,585,63,585 C58.0294,585,54,580.971,54,576 C54,571.029,58.0294,567,63,567 C67.9706,567,72,571.029,72,576 Z"/><text fill="#000100" font-family="Helvetica" font-size="12" transform="matrix(1,0,0,1,58.9834,580.304)" xml:space="preserve"><tspan>A</tspan></text></g><text fill="#000100" font-family="Helvetica" font-size="12" transform="matrix(1,0,0,1,78.9619,563.926)" xml:space="preserve"><tspan>6</tspan></text><text fill="#000100" font-family="Helvetica" font-size="12" transform="matrix(1,0,0,1,330,456.5)" xml:space="preserve"><tspan>7</tspan></text><text fill="#000100" font-family="Helvetica" font-size="12" transform="matrix(1,0,0,1,79,541)" xml:space="preserve"><tspan>4</tspan></text><text fill="#000100" font-family="Helvetica" font-size="12" transform="matrix(1,0,0,1,165,495)" xml:space="preserve"><tspan>5</tspan></text><text fill="#000100" font-family="Helvetica" font-size="12" transform="matrix(1,0,0,1,143.695,527.483)" xml:space="preserve"><tspan>6</tspan></text><text fill="#000100" font-family="Helvetica" font-size="12" transform="matrix(1,0,0,1,192,512)" xml:space="preserve"><tspan>7</tspan></text><text fill="#000100" font-family="Helvetica" font-size="12" transform="matrix(1,0,0,1,144.5,553)" xml:space="preserve"><tspan>7</tspan></text><text fill="#000100" font-family="Helvetica" font-size="12" transform="matrix(1,0,0,1,90,525)" xml:space="preserve"><tspan>4</tspan></text><text fill="#000100" font-family="Helvetica" font-size="12" transform="matrix(1,0,0,1,309.5,503)" xml:space="preserve"><tspan>9</tspan></text><text fill="#000100" font-family="Helvetica" font-size="12" transform="matrix(1,0,0,1,301,439.5)" xml:space="preserve"><tspan>5</tspan></text><text fill="#000100" font-family="Helvetica" font-size="12" transform="matrix(1,0,0,1,269,465.403)" xml:space="preserve"><tspan>8</tspan></text><text fill="#000100" font-family="Helvetica" font-size="12" transform="matrix(1,0,0,1,337.5,527.5)" xml:space="preserve"><tspan>4</tspan></text><text fill="#000100" font-family="Helvetica" font-size="12" transform="matrix(1,0,0,1,268.875,536.329)" xml:space="preserve"><tspan>5</tspan></text><text fill="#000100" font-family="Helvetica" font-size="12" transform="matrix(1,0,0,1,213,537.896)" xml:space="preserve"><tspan>5</tspan></text><text fill="#000100" font-family="Helvetica" font-size="12" transform="matrix(1,0,0,1,245.5,587)" xml:space="preserve"><tspan>3</tspan></text><g><path fill="#ccc" stroke="#000100" d="M189,531 C189,535.971,184.971,540,180,540 C175.029,540,171,535.971,171,531 C171,526.029,175.029,522,180,522 C184.971,522,189,526.029,189,531 Z"/><text fill="#000100" font-family="Helvetica" font-size="12" transform="matrix(1,0,0,1,175.983,535.304)" xml:space="preserve"><tspan>A</tspan></text></g><g><path fill="#ccc" stroke="#000100" d="M126,549 C126,553.971,121.971,558,117,558 C112.029,558,108,553.971,108,549 C108,544.029,112.029,540,117,540 C121.971,540,126,544.029,126,549 Z"/><text fill="#000100" font-family="Helvetica" font-size="12" transform="matrix(1,0,0,1,112.983,553.304)" xml:space="preserve"><tspan>A</tspan></text></g><g><path fill="#ccc" stroke="#000100" d="M315,531 C315,535.971,310.971,540,306,540 C301.029,540,297,535.971,297,531 C297,526.029,301.029,522,306,522 C310.971,522,315,526.029,315,531 Z"/><text fill="#000100" font-family="Helvetica" font-size="12" transform="matrix(1,0,0,1,301.983,535.304)" xml:space="preserve"><tspan>A</tspan></text></g><g><path fill="#ccc" stroke="#000100" d="M315,468 C315,472.971,310.971,477,306,477 C301.029,477,297,472.971,297,468 C297,463.029,301.029,459,306,459 C310.971,459,315,463.029,315,468 Z"/><text fill="#000100" font-family="Helvetica" font-size="12" transform="matrix(1,0,0,1,301.983,472.304)" xml:space="preserve"><tspan>A</tspan></text></g><g><path fill="#fffffe" stroke="#000100" d="M324,405 C324,409.971,319.971,414,315,414 C310.029,414,306,409.971,306,405 C306,400.029,310.029,396,315,396 C319.971,396,324,400.029,324,405 Z"/><text fill="#000100" font-family="Helvetica" font-size="12" transform="matrix(1,0,0,1,310.983,409.304)" xml:space="preserve"><tspan>A</tspan></text></g><path fill="#fffffe" stroke="#000100" d="M162,468 C162,472.971,157.971,477,153,477 C148.029,477,144,472.971,144,468 C144,463.029,148.029,459,153,459 C157.971,459,162,463.029,162,468 Z"/><text fill="#000100" font-family="Helvetica" font-size="12" transform="matrix(1,0,0,1,148.983,472.304)" xml:space="preserve"><tspan>A</tspan></text><path fill="#666" stroke="#000100" d="M135,504 C135,508.971,130.971,513,126,513 C121.029,513,117,508.971,117,504 C117,499.029,121.029,495,126,495 C130.971,495,135,499.029,135,504 Z"/><text fill="#000100" font-family="Helvetica" font-size="12" transform="matrix(1,0,0,1,121.983,508.304)" xml:space="preserve"><tspan>A</tspan></text><g><path fill="#666" stroke="#000100" d="M378,450 C378,454.971,373.971,459,369,459 C364.029,459,360,454.971,360,450 C360,445.029,364.029,441,369,441 C373.971,441,378,445.029,378,450 Z"/><text fill="#000100" font-family="Helvetica" font-size="12" transform="matrix(1,0,0,1,364.983,454.304)" xml:space="preserve"><tspan>A</tspan></text></g><g><path fill="#666" stroke="#000100" d="M378,531 C378,535.971,373.971,540,369,540 C364.029,540,360,535.971,360,531 C360,526.029,364.029,522,369,522 C373.971,522,378,526.029,378,531 Z"/><text fill="#000100" font-family="Helvetica" font-size="12" transform="matrix(1,0,0,1,364.983,535.304)" xml:space="preserve"><tspan>A</tspan></text></g><g><path fill="#666" stroke="#000100" d="M72,504 C72,508.971,67.9706,513,63,513 C58.0294,513,54,508.971,54,504 C54,499.029,58.0294,495,63,495 C67.9706,495,72,499.029,72,504 Z"/><text fill="#000100" font-family="Helvetica" font-size="12" transform="matrix(1,0,0,1,58.9834,508.304)" xml:space="preserve"><tspan>A</tspan></text></g><g><path fill="#666" stroke="#000100" d="M63,540 C63,544.971,58.9706,549,54,549 C49.0294,549,45,544.971,45,540 C45,535.029,49.0294,531,54,531 C58.9706,531,63,535.029,63,540 Z"/><text fill="#000100" font-family="Helvetica" font-size="12" transform="matrix(1,0,0,1,49.9834,544.304)" xml:space="preserve"><tspan>A</tspan></text></g><path fill="none" stroke="#000100" d="M72,576 L234,549.53"/><path fill="none" stroke="#000100" d="M193.983,481.304 L243,540"/><path fill="none" stroke="#000100" d="M242.96,449.875 L243,540"/><text fill="#000100" font-family="Helvetica" font-size="12" transform="matrix(1,0,0,1,245.45,499.019)" xml:space="preserve"><tspan>0</tspan></text><text fill="#000100" font-family="Helvetica" font-size="12" transform="matrix(1,0,0,1,155.836,572.891)" xml:space="preserve"><tspan>0</tspan></text><text fill="#000100" font-family="Helvetica" font-size="12" transform="matrix(1,0,0,1,219,508.98)" xml:space="preserve"><tspan>0</tspan></text></svg>
